<svg width="284" height="40" viewBox="0 0 284 40" fill="none" xmlns="http://www.w3.org/2000/svg">
<path d="M43.82 30V16.112H46.984L47.264 18.464C47.6933 17.6427 48.3093 16.9893 49.112 16.504C49.9333 16.0187 50.8947 15.776 51.996 15.776C53.7133 15.776 55.048 16.3173 56 17.4C56.952 18.4827 57.428 20.0693 57.428 22.16V30H53.844V22.496C53.844 21.3013 53.6013 20.3867 53.116 19.752C52.6307 19.1173 51.8747 18.8 50.848 18.8C49.84 18.8 49.0093 19.1547 48.356 19.864C47.7213 20.5733 47.404 21.5627 47.404 22.832V30H43.82ZM66.0632 30.336C64.3272 30.336 62.9832 29.7947 62.0312 28.712C61.0978 27.6293 60.6312 26.0427 60.6312 23.952V16.112H64.1872V23.616C64.1872 24.8107 64.4298 25.7253 64.9152 26.36C65.4005 26.9947 66.1658 27.312 67.2112 27.312C68.2005 27.312 69.0125 26.9573 69.6472 26.248C70.3005 25.5387 70.6272 24.5493 70.6272 23.28V16.112H74.2112V30H71.0472L70.7672 27.648C70.3378 28.4693 69.7125 29.1227 68.8912 29.608C68.0885 30.0933 67.1458 30.336 66.0632 30.336ZM76.5743 30L81.6143 23.056L76.5743 16.112H80.4103L83.9383 21.04L87.4383 16.112H91.3023L86.2343 23.056L91.3023 30H87.4383L83.9383 25.072L80.4103 30H76.5743ZM99.7736 30C98.3176 30 97.151 29.6453 96.2736 28.936C95.3963 28.2267 94.9576 26.9667 94.9576 25.156V19.108H92.5776V16.112H94.9576L95.3776 12.388H98.5416V16.112H102.294V19.108H98.5416V25.184C98.5416 25.856 98.6816 26.3227 98.9616 26.584C99.2603 26.8267 99.7643 26.948 100.474 26.948H102.21V30H99.7736ZM104.195 33.108L111.195 8.244H114.695L107.667 33.108H104.195Z" fill="white"/>
<path d="M122.896 30.336C121.664 30.336 120.581 30.14 119.648 29.748C118.715 29.3373 117.968 28.7773 117.408 28.068C116.848 27.3587 116.512 26.5373 116.4 25.604H120.012C120.124 26.1453 120.423 26.612 120.908 27.004C121.412 27.3773 122.056 27.564 122.84 27.564C123.624 27.564 124.193 27.4053 124.548 27.088C124.921 26.7707 125.108 26.4067 125.108 25.996C125.108 25.3987 124.847 24.9973 124.324 24.792C123.801 24.568 123.073 24.3533 122.14 24.148C121.543 24.0173 120.936 23.8587 120.32 23.672C119.704 23.4853 119.135 23.252 118.612 22.972C118.108 22.6733 117.697 22.3 117.38 21.852C117.063 21.3853 116.904 20.816 116.904 20.144C116.904 18.912 117.389 17.876 118.36 17.036C119.349 16.196 120.731 15.776 122.504 15.776C124.147 15.776 125.453 16.1587 126.424 16.924C127.413 17.6893 128.001 18.744 128.188 20.088H124.8C124.595 19.0613 123.82 18.548 122.476 18.548C121.804 18.548 121.281 18.6787 120.908 18.94C120.553 19.2013 120.376 19.528 120.376 19.92C120.376 20.3307 120.647 20.6573 121.188 20.9C121.729 21.1427 122.448 21.3667 123.344 21.572C124.315 21.796 125.201 22.048 126.004 22.328C126.825 22.5893 127.479 22.9907 127.964 23.532C128.449 24.0547 128.692 24.8107 128.692 25.8C128.711 26.6587 128.487 27.4333 128.02 28.124C127.553 28.8147 126.881 29.356 126.004 29.748C125.127 30.14 124.091 30.336 122.896 30.336ZM131.867 36.16V16.112H135.059L135.451 18.1C135.899 17.484 136.487 16.9427 137.215 16.476C137.962 16.0093 138.923 15.776 140.099 15.776C141.406 15.776 142.572 16.0933 143.599 16.728C144.626 17.3627 145.438 18.2307 146.035 19.332C146.632 20.4333 146.931 21.684 146.931 23.084C146.931 24.484 146.632 25.7347 146.035 26.836C145.438 27.9187 144.626 28.7773 143.599 29.412C142.572 30.028 141.406 30.336 140.099 30.336C139.054 30.336 138.139 30.14 137.355 29.748C136.571 29.356 135.936 28.8053 135.451 28.096V36.16H131.867ZM139.343 27.2C140.482 27.2 141.424 26.8173 142.171 26.052C142.918 25.2867 143.291 24.2973 143.291 23.084C143.291 21.8707 142.918 20.872 142.171 20.088C141.424 19.304 140.482 18.912 139.343 18.912C138.186 18.912 137.234 19.304 136.487 20.088C135.759 20.8533 135.395 21.8427 135.395 23.056C135.395 24.2693 135.759 25.268 136.487 26.052C137.234 26.8173 138.186 27.2 139.343 27.2ZM156.881 30.336C155.481 30.336 154.239 30.0373 153.157 29.44C152.074 28.8427 151.225 28.0027 150.609 26.92C149.993 25.8373 149.685 24.5867 149.685 23.168C149.685 21.7307 149.983 20.452 150.581 19.332C151.197 18.212 152.037 17.344 153.101 16.728C154.183 16.0933 155.453 15.776 156.909 15.776C158.271 15.776 159.475 16.0747 160.521 16.672C161.566 17.2693 162.378 18.0907 162.957 19.136C163.554 20.1627 163.853 21.3107 163.853 22.58C163.853 22.7853 163.843 23 163.825 23.224C163.825 23.448 163.815 23.6813 163.797 23.924H153.241C153.315 25.0067 153.689 25.856 154.361 26.472C155.051 27.088 155.882 27.396 156.853 27.396C157.581 27.396 158.187 27.2373 158.673 26.92C159.177 26.584 159.55 26.1547 159.793 25.632H163.433C163.171 26.5093 162.733 27.312 162.117 28.04C161.519 28.7493 160.773 29.3093 159.877 29.72C158.999 30.1307 158.001 30.336 156.881 30.336ZM156.909 18.688C156.031 18.688 155.257 18.94 154.585 19.444C153.913 19.9293 153.483 20.676 153.297 21.684H160.213C160.157 20.7693 159.821 20.0413 159.205 19.5C158.589 18.9587 157.823 18.688 156.909 18.688ZM173.615 30.336C172.215 30.336 170.974 30.0373 169.891 29.44C168.808 28.8427 167.959 28.0027 167.343 26.92C166.727 25.8373 166.419 24.5867 166.419 23.168C166.419 21.7307 166.718 20.452 167.315 19.332C167.931 18.212 168.771 17.344 169.835 16.728C170.918 16.0933 172.187 15.776 173.643 15.776C175.006 15.776 176.21 16.0747 177.255 16.672C178.3 17.2693 179.112 18.0907 179.691 19.136C180.288 20.1627 180.587 21.3107 180.587 22.58C180.587 22.7853 180.578 23 180.559 23.224C180.559 23.448 180.55 23.6813 180.531 23.924H169.975C170.05 25.0067 170.423 25.856 171.095 26.472C171.786 27.088 172.616 27.396 173.587 27.396C174.315 27.396 174.922 27.2373 175.407 26.92C175.911 26.584 176.284 26.1547 176.527 25.632H180.167C179.906 26.5093 179.467 27.312 178.851 28.04C178.254 28.7493 177.507 29.3093 176.611 29.72C175.734 30.1307 174.735 30.336 173.615 30.336ZM173.643 18.688C172.766 18.688 171.991 18.94 171.319 19.444C170.647 19.9293 170.218 20.676 170.031 21.684H176.947C176.891 20.7693 176.555 20.0413 175.939 19.5C175.323 18.9587 174.558 18.688 173.643 18.688ZM189.985 30.336C188.679 30.336 187.512 30.0187 186.485 29.384C185.459 28.7493 184.647 27.8813 184.049 26.78C183.452 25.6787 183.153 24.428 183.153 23.028C183.153 21.628 183.452 20.3867 184.049 19.304C184.647 18.2027 185.459 17.344 186.485 16.728C187.512 16.0933 188.679 15.776 189.985 15.776C191.031 15.776 191.945 15.972 192.729 16.364C193.513 16.756 194.148 17.3067 194.633 18.016V9.84H198.217V30H195.025L194.633 28.012C194.185 28.628 193.588 29.1693 192.841 29.636C192.113 30.1027 191.161 30.336 189.985 30.336ZM190.741 27.2C191.899 27.2 192.841 26.8173 193.569 26.052C194.316 25.268 194.689 24.2693 194.689 23.056C194.689 21.8427 194.316 20.8533 193.569 20.088C192.841 19.304 191.899 18.912 190.741 18.912C189.603 18.912 188.66 19.2947 187.913 20.06C187.167 20.8253 186.793 21.8147 186.793 23.028C186.793 24.2413 187.167 25.24 187.913 26.024C188.66 26.808 189.603 27.2 190.741 27.2ZM208.671 30.336C207.252 30.336 206.002 30.028 204.919 29.412C203.836 28.796 202.978 27.9373 202.343 26.836C201.727 25.7347 201.419 24.4747 201.419 23.056C201.419 21.6373 201.727 20.3773 202.343 19.276C202.978 18.1747 203.836 17.316 204.919 16.7C206.002 16.084 207.252 15.776 208.671 15.776C210.444 15.776 211.938 16.2427 213.151 17.176C214.364 18.0907 215.139 19.36 215.475 20.984H211.695C211.508 20.312 211.135 19.7893 210.575 19.416C210.034 19.024 209.39 18.828 208.643 18.828C207.654 18.828 206.814 19.2013 206.123 19.948C205.432 20.6947 205.087 21.7307 205.087 23.056C205.087 24.3813 205.432 25.4173 206.123 26.164C206.814 26.9107 207.654 27.284 208.643 27.284C209.39 27.284 210.034 27.0973 210.575 26.724C211.135 26.3507 211.508 25.8187 211.695 25.128H215.475C215.139 26.696 214.364 27.956 213.151 28.908C211.938 29.86 210.444 30.336 208.671 30.336ZM223.864 30.336C222.128 30.336 220.784 29.7947 219.832 28.712C218.899 27.6293 218.432 26.0427 218.432 23.952V16.112H221.988V23.616C221.988 24.8107 222.231 25.7253 222.716 26.36C223.201 26.9947 223.967 27.312 225.012 27.312C226.001 27.312 226.813 26.9573 227.448 26.248C228.101 25.5387 228.428 24.5493 228.428 23.28V16.112H232.012V30H228.848L228.568 27.648C228.139 28.4693 227.513 29.1227 226.692 29.608C225.889 30.0933 224.947 30.336 223.864 30.336ZM235.691 30V16.112H238.883L239.219 18.716C239.723 17.82 240.404 17.1107 241.263 16.588C242.14 16.0467 243.167 15.776 244.343 15.776V19.556H243.335C242.551 19.556 241.851 19.6773 241.235 19.92C240.619 20.1627 240.134 20.5827 239.779 21.18C239.443 21.7773 239.275 22.608 239.275 23.672V30H235.691ZM250.545 30L245.449 16.112H249.201L252.729 26.612L256.257 16.112H260.009L254.885 30H250.545ZM268.334 30.336C266.934 30.336 265.692 30.0373 264.61 29.44C263.527 28.8427 262.678 28.0027 262.062 26.92C261.446 25.8373 261.138 24.5867 261.138 23.168C261.138 21.7307 261.436 20.452 262.034 19.332C262.65 18.212 263.49 17.344 264.554 16.728C265.636 16.0933 266.906 15.776 268.362 15.776C269.724 15.776 270.928 16.0747 271.974 16.672C273.019 17.2693 273.831 18.0907 274.41 19.136C275.007 20.1627 275.306 21.3107 275.306 22.58C275.306 22.7853 275.296 23 275.278 23.224C275.278 23.448 275.268 23.6813 275.25 23.924H264.694C264.768 25.0067 265.142 25.856 265.814 26.472C266.504 27.088 267.335 27.396 268.306 27.396C269.034 27.396 269.64 27.2373 270.126 26.92C270.63 26.584 271.003 26.1547 271.246 25.632H274.886C274.624 26.5093 274.186 27.312 273.57 28.04C272.972 28.7493 272.226 29.3093 271.33 29.72C270.452 30.1307 269.454 30.336 268.334 30.336ZM268.362 18.688C267.484 18.688 266.71 18.94 266.038 19.444C265.366 19.9293 264.936 20.676 264.75 21.684H271.666C271.61 20.7693 271.274 20.0413 270.658 19.5C270.042 18.9587 269.276 18.688 268.362 18.688Z" fill="#3B95C5"/>
<path fill-rule="evenodd" clip-rule="evenodd" d="M29.8057 15.1727C28.3672 13.8279 26.4674 13.0866 24.4983 13.1018C22.4914 13.1018 20.608 13.8332 19.1909 15.1727L15.424 18.7201C15.3509 18.7932 15.2869 18.8755 15.2183 18.9852L15.2 19.0218L15.1634 19.0401C15.0446 19.1041 14.9577 19.1635 14.8846 19.2366L10.9257 22.9669C10.0114 23.8309 8.79543 24.3063 7.49714 24.3063C6.208 24.3063 4.992 23.8309 4.07314 22.9669C3.62636 22.5559 3.26972 22.0566 3.02576 21.5007C2.78181 20.9448 2.65585 20.3443 2.65585 19.7372C2.65585 19.1301 2.78181 18.5296 3.02576 17.9737C3.26972 17.4178 3.62636 16.9185 4.07314 16.5075L8.21029 12.6081C8.23314 12.5898 8.25143 12.5624 8.26971 12.5395L8.30171 12.4984L14.1531 6.9807C14.4818 6.67454 14.9154 6.50602 15.3646 6.50985C15.8217 6.50985 16.2514 6.67442 16.576 6.9807C16.7333 7.12662 16.8588 7.30344 16.9446 7.50009C17.0304 7.69675 17.0747 7.909 17.0747 8.12356C17.0747 8.33812 17.0304 8.55037 16.9446 8.74702C16.8588 8.94367 16.7333 9.12049 16.576 9.26641L7.05371 18.2355C6.93127 18.3485 6.83356 18.4857 6.76672 18.6383C6.69989 18.7909 6.66539 18.9557 6.66539 19.1224C6.66539 19.289 6.69989 19.4538 6.76672 19.6064C6.83356 19.7591 6.93127 19.8962 7.05371 20.0092C7.30514 20.2469 7.63886 20.3749 7.99543 20.3749C8.352 20.3749 8.68114 20.2469 8.93714 20.0092L18.4549 11.031C18.8571 10.6598 19.1784 10.2096 19.3987 9.70852C19.6189 9.20745 19.7334 8.66632 19.7349 8.11898C19.7349 7.01727 19.2777 5.97957 18.4549 5.20243C17.6164 4.42117 16.5105 3.99091 15.3646 4.00015C14.218 3.99215 13.112 4.42408 12.2743 5.207L5.92 11.1955L5.86057 11.2641L5.82857 11.3098L2.19429 14.7338C0.777143 16.0687 0 17.8424 0 19.7349C0 21.6275 0.777143 23.4058 2.19429 24.7406C3.6316 26.0843 5.52959 26.8255 7.49714 26.8115C9.50857 26.8115 11.3874 26.08 12.8046 24.7406L16.7634 21.0058C16.8366 20.9372 16.9006 20.8549 16.9691 20.7452L16.992 20.7086L17.0286 20.6904C17.1429 20.6264 17.2343 20.5669 17.3029 20.4938L21.0697 16.9464C21.984 16.0824 23.2046 15.6069 24.4983 15.6069C25.792 15.6069 27.008 16.0824 27.9223 16.9464C28.8366 17.8104 29.3394 18.9578 29.3394 20.1738C29.3394 21.3944 28.8366 22.5418 27.9223 23.4058L17.7554 32.992C17.4079 33.3158 16.9504 33.4955 16.4754 33.4949C15.9986 33.498 15.5388 33.318 15.1909 32.992C15.024 32.8379 14.8908 32.6509 14.7997 32.4428C14.7086 32.2347 14.6615 32.01 14.6615 31.7829C14.6615 31.5557 14.7086 31.331 14.7997 31.1229C14.8908 30.9148 15.024 30.7278 15.1909 30.5737L25.0331 21.2938C25.155 21.1804 25.2521 21.0432 25.3186 20.8906C25.385 20.738 25.4193 20.5734 25.4193 20.4069C25.4193 20.2405 25.385 20.0759 25.3186 19.9233C25.2521 19.7707 25.155 19.6334 25.0331 19.5201C24.7777 19.282 24.4406 19.1511 24.0914 19.1544C23.7394 19.1544 23.4057 19.2824 23.1543 19.5201L13.3029 28.8C12.8912 29.1808 12.5626 29.6425 12.3376 30.1561C12.1126 30.6698 11.9961 31.2244 11.9954 31.7852C11.9968 32.3452 12.1135 32.8989 12.3385 33.4117C12.5635 33.9245 12.8917 34.3855 13.3029 34.7657C14.1486 35.5611 15.2686 36 16.4663 36C17.664 36 18.7886 35.5611 19.6297 34.7657L29.8057 25.1795C31.2229 23.8401 32 22.0664 32 20.1738C32 18.2858 31.2229 16.5075 29.8057 15.1727" fill="#3B95C5"/>
</svg>
