<svg width="505" height="70" xmlns="http://www.w3.org/2000/svg">

 <g>
  <title>background</title>
  <rect fill="none" id="canvas_background" height="72" width="507" y="-1" x="-1"/>
 </g>
 <g>
  <title>Layer 1</title>
  <g id="svg_1" fill-rule="evenodd" fill="none">
   <path id="svg_2" fill="#3B95C5" d="m65.2,24.44a16.81,16.81 0 0 0 -11.61,-4.53c-4.39,0 -8.51,1.6 -11.61,4.53l-8.24,7.76c-0.16,0.16 -0.3,0.34 -0.45,0.58l-0.04,0.08l-0.08,0.04c-0.26,0.14 -0.45,0.27 -0.61,0.43l-8.66,8.16c-2,1.89 -4.66,2.93 -7.5,2.93c-2.82,0 -5.48,-1.04 -7.49,-2.93a9.6,9.6 0 0 1 0,-14.13l9.05,-8.53c0.05,-0.04 0.09,-0.1 0.13,-0.15l0.07,-0.09l12.8,-12.07a3.84,3.84 0 0 1 2.65,-1.03c1,0 1.94,0.36 2.65,1.03a3.41,3.41 0 0 1 0,5l-20.83,19.62a2.64,2.64 0 0 0 0,3.88c0.55,0.52 1.28,0.8 2.06,0.8s1.5,-0.28 2.06,-0.8l20.82,-19.64a8.7,8.7 0 0 0 2.8,-6.37c0,-2.41 -1,-4.68 -2.8,-6.38a9.8,9.8 0 0 0 -6.76,-2.63a9.8,9.8 0 0 0 -6.76,2.64l-13.9,13.1l-0.13,0.15l-0.07,0.1l-7.95,7.49c-3.1,2.92 -4.8,6.8 -4.8,10.94s1.7,8.03 4.8,10.95a16.81,16.81 0 0 0 11.6,4.53c4.4,0 8.51,-1.6 11.61,-4.53l8.66,-8.17c0.16,-0.15 0.3,-0.33 0.45,-0.57l0.05,-0.08l0.08,-0.04c0.25,-0.14 0.45,-0.27 0.6,-0.43l8.24,-7.76c2,-1.89 4.67,-2.93 7.5,-2.93s5.49,1.04 7.49,2.93c2,1.89 3.1,4.4 3.1,7.06c0,2.67 -1.1,5.18 -3.1,7.07l-22.24,20.97a4.1,4.1 0 0 1 -2.8,1.1a4.07,4.07 0 0 1 -2.81,-1.1a3.6,3.6 0 0 1 0,-5.29l21.53,-20.3a2.65,2.65 0 0 0 0,-3.88a2.98,2.98 0 0 0 -2.06,-0.8c-0.77,0 -1.5,0.28 -2.05,0.8l-21.55,20.3a8.91,8.91 0 0 0 -2.86,6.53a8.91,8.91 0 0 0 2.86,6.52c1.85,1.74 4.3,2.7 6.92,2.7s5.08,-0.96 6.92,-2.7l22.26,-20.97c3.1,-2.93 4.8,-6.81 4.8,-10.95c0,-4.13 -1.7,-8.02 -4.8,-10.94"/>
  </g>
  <text font-weight="bold" xml:space="preserve" text-anchor="start" font-family="Helvetica, Arial, sans-serif" font-size="47" id="svg_8" y="48" x="229.5" stroke-opacity="null" stroke-width="0" stroke="#fff" fill="#3b95c5">speedcurve</text>
  <text font-weight="bold" xml:space="preserve" text-anchor="start" font-family="Helvetica, Arial, sans-serif" font-size="47" id="svg_9" y="50" x="91.5" stroke-width="0" stroke="#000000" fill="#fff">nuxt /</text>
 </g>
</svg>